<svg
    width="20"
    height="20"
    fill="none"
    xmlns="http://www.w3.org/2000/svg"
>
    <path
        d="M4.328 15.672c1.594 1.562 3.484 2.344 5.672 2.344 2.188 0 4.063-.782 5.625-2.344 1.594-1.594 2.39-3.485 2.39-5.672 0-2.188-.796-4.063-2.39-5.625-1.563-1.594-3.438-2.39-5.625-2.39-2.188 0-4.078.796-5.672 2.39C2.766 5.938 1.984 7.813 1.984 10c0 2.188.782 4.078 2.344 5.672zM2.922 2.969C4.89 1 7.25.016 10 .016s5.094.984 7.031 2.953C19 4.906 19.984 7.25 19.984 10s-.984 5.11-2.953 7.078c-1.937 1.938-4.281 2.906-7.031 2.906s-5.11-.968-7.078-2.906C.984 15.11.016 12.75.016 10s.968-5.094 2.906-7.031zm8.062 2.015v4.032h4.032v1.968h-4.032v4.032H9.016v-4.032H4.984V9.016h4.032V4.984h1.968z"
        fill="#fff"
    />
</svg>