<svg
    width="22"
    height="20"
    fill="none"
    xmlns="http://www.w3.org/2000/svg"
>
    <path
        d="M19.137 12.392a1.146 1.146 0 00-1.514.575 7.257 7.257 0 01-13.11.283l.65.29a1.146 1.146 0 00.931-2.094L3.08 10.104a1.144 1.144 0 00-1.513.58L.225 13.7a1.146 1.146 0 002.093.932l.153-.344a9.547 9.547 0 0017.242-.381 1.145 1.145 0 00-.576-1.514zm2.059-7.604a1.146 1.146 0 00-1.513.58l-.153.345a9.548 9.548 0 00-17.207.304 1.146 1.146 0 102.082.957 7.257 7.257 0 0113.082-.224l-.648-.29a1.145 1.145 0 00-.932 2.094l3.006 1.338.005.002a1.145 1.145 0 001.516-.579l1.342-3.014a1.146 1.146 0 00-.58-1.513z"
        fill="#fff"
    />
</svg>