<svg width="60" height="60" fill="none" xmlns="http://www.w3.org/2000/svg">
  <g clip-path="url(#loupe_1__clip0)">
    <path d="M9.514 10.149C15.275 4.11 24.13 3.183 30.678 6.82a1.172 1.172 0 01-1.138 2.05c-5.99-3.329-13.528-2.137-18.325 2.89-4.95 5.252-5.507 13.08-1.678 18.883 5.275 8.011 16.666 9.218 23.496 2.387 4.603-4.6 5.936-12.02 2.612-18.058a1.172 1.172 0 012.053-1.13 17.607 17.607 0 01-3.008 20.845c-7.868 7.871-21.012 6.508-27.11-2.754a17.611 17.611 0 011.934-21.785z" fill="#F86A0C"/>
    <path d="M6.511 6.511c8.683-8.681 22.81-8.681 31.494 0 7.808 7.81 8.648 20.053 2.29 28.812l3.652 3.651a3.516 3.516 0 014.003.688l10.33 10.333a5.854 5.854 0 010 8.286 5.854 5.854 0 01-8.286 0L39.662 47.95a3.516 3.516 0 01-.688-4.003l-3.652-3.652c-8.76 6.36-21.003 5.517-28.81-2.29-8.683-8.683-8.683-22.81 0-31.494zM41.32 46.292l10.334 10.332a3.511 3.511 0 004.971 0 3.511 3.511 0 000-4.972L46.292 41.32a1.173 1.173 0 00-1.657 0l-3.316 3.316a1.173 1.173 0 000 1.657zm-.828-4.143l1.658-1.658-3.338-3.337a22.525 22.525 0 01-1.657 1.657l3.337 3.338zM8.169 36.347c7.767 7.766 20.348 7.832 28.178 0 7.822-7.82 7.775-20.402 0-28.178C28.58.402 15.938.401 8.17 8.169.4 15.938.4 28.579 8.169 36.347z" fill="#fff"/>
    <path d="M33.002 9.856a1.174 1.174 0 011.687-.03c.456.458.456 1.2 0 1.658l-.031.03a1.174 1.174 0 01-1.656-1.657z" fill="#F86A0C"/>
  </g>
  <defs>
    <clipPath id="loupe_1__clip0">
      <path fill="#fff" transform="matrix(-1 0 0 1 60 0)" d="M0 0h60v60H0z"/>
    </clipPath>
  </defs>
</svg>
