<svg width="60" height="60" fill="none" xmlns="http://www.w3.org/2000/svg">
  <g clip-path="url(#edc_1__clip0)">
    <path d="M53.324 45.017h-2.972a.879.879 0 100 1.758h2.972a.879.879 0 000-1.758zm0-2.337h-2.972a.879.879 0 100 1.758h2.972a.879.879 0 100-1.758z" fill="#F86A0C"/>
    <path d="M53.324 40.344h-2.972a.879.879 0 100 1.758h2.972a.879.879 0 100-1.758z" fill="#fff"/>
    <path d="M53.324 36.633h-2.972a.879.879 0 100 1.758h2.972a.879.879 0 000-1.758zm0-2.337h-2.972a.879.879 0 100 1.758h2.972a.879.879 0 000-1.758z" fill="#F86A0C"/>
    <path d="M53.324 31.96h-2.972a.879.879 0 100 1.757h2.972a.879.879 0 100-1.758z" fill="#fff"/>
    <path d="M53.324 28.249h-2.972a.879.879 0 100 1.758h2.972a.879.879 0 000-1.758zm0-2.337h-2.972a.879.879 0 100 1.758h2.972a.879.879 0 000-1.758z" fill="#F86A0C"/>
    <path d="M53.324 23.575h-2.972a.879.879 0 100 1.758h2.972a.879.879 0 000-1.758z" fill="#fff"/>
    <path d="M58.754 14.526a4.927 4.927 0 00-4.346-4.587 83.398 83.398 0 00-9.888-.576l-.198.002c-.016-.266-.03-.533-.047-.799A8.385 8.385 0 0036.751.718a134.98 134.98 0 00-27.802 0 8.385 8.385 0 00-7.525 7.848 347.197 347.197 0 000 42.868 8.385 8.385 0 007.525 7.848 134.738 134.738 0 0027.801 0 8.344 8.344 0 004.777-2.133.879.879 0 10-1.18-1.303 6.599 6.599 0 01-3.778 1.688 133.21 133.21 0 01-27.439 0 6.632 6.632 0 01-5.951-6.209c-.878-14.15-.878-28.5 0-42.65A6.632 6.632 0 019.13 2.466a133.21 133.21 0 0127.44 0 6.632 6.632 0 015.95 6.209c.879 14.15.879 28.5 0 42.65a6.63 6.63 0 01-.468 2.074.879.879 0 101.63.658 8.38 8.38 0 00.593-2.623c.017-.266.03-.533.046-.8l.2.002h.118c3.242 0 6.529-.193 9.768-.575a4.927 4.927 0 004.347-4.587 247.73 247.73 0 000-30.948zm-1.755 30.838a3.17 3.17 0 01-2.796 2.951c-3.211.379-6.47.57-9.677.564l-.102-.001c.684-12.54.684-25.216 0-37.756h.1a82.639 82.639 0 019.68.563 3.17 3.17 0 012.795 2.951c.64 10.195.64 20.533 0 30.728z" fill="#fff"/>
    <path d="M39.883 10.357a5.462 5.462 0 00-5.237-4.91c-7.826-.32-15.764-.32-23.592 0a5.462 5.462 0 00-5.237 4.91 34.62 34.62 0 000 7.418 5.526 5.526 0 003.198 4.427.88.88 0 00.726-1.602 3.761 3.761 0 01-2.176-3.013 32.86 32.86 0 010-7.042 3.715 3.715 0 013.56-3.341c7.78-.318 15.67-.318 23.45 0a3.715 3.715 0 013.56 3.341 32.862 32.862 0 010 7.042 3.717 3.717 0 01-3.56 3.341 289.62 289.62 0 01-21.698.066.879.879 0 10-.06 1.757 291.006 291.006 0 0021.83-.066 5.464 5.464 0 005.236-4.91 34.646 34.646 0 000-7.418zm-5.11 15.278a166.66 166.66 0 00-23.849 0 5.23 5.23 0 00-4.856 4.736c-.6 6.436-.6 12.962 0 19.398a5.23 5.23 0 004.856 4.736 166.205 166.205 0 0023.849 0 5.23 5.23 0 004.856-4.736c.6-6.436.6-12.962 0-19.397a5.23 5.23 0 00-4.856-4.737zm3.105 4.9c.122 1.3.217 2.603.288 3.909-2.847-.07-5.719-.12-8.566-.15a367.622 367.622 0 00-.18-7.196c1.746.07 3.489.165 5.227.29a3.478 3.478 0 013.232 3.147zM7.45 36.205a589.94 589.94 0 018.625-.153 373.731 373.731 0 000 8.036 610.7 610.7 0 01-8.625-.153 103.052 103.052 0 010-7.73zm10.384 7.9c-.03-2.682-.03-5.387 0-8.07 3.332-.028 6.697-.028 10.03 0 .03 2.683.03 5.387 0 8.07a598.92 598.92 0 01-10.03 0zm11.788-8.053c2.868.03 5.76.081 8.626.152a103.8 103.8 0 010 7.731c-2.866.071-5.758.122-8.625.153a384.4 384.4 0 000-8.036zm-1.964-9.015c.085 2.396.146 4.823.183 7.24a599.88 599.88 0 00-9.985 0c.038-2.417.099-4.844.183-7.24a165.4 165.4 0 019.62 0zm-19.84 3.498a3.477 3.477 0 013.232-3.147c1.738-.125 3.482-.22 5.228-.29a368.436 368.436 0 00-.18 7.196c-2.848.03-5.72.08-8.567.15a99.88 99.88 0 01.288-3.91zm0 19.07c-.12-1.3-.216-2.603-.287-3.91 2.847.07 5.72.121 8.567.151.037 2.403.097 4.814.18 7.196-1.746-.07-3.49-.166-5.227-.29a3.477 3.477 0 01-3.232-3.147zm10.221 3.498a365.29 365.29 0 01-.183-7.24c1.66.013 3.325.022 4.993.022 1.667 0 3.333-.009 4.992-.022a364.585 364.585 0 01-.183 7.24 165.85 165.85 0 01-9.619 0zm19.84-3.498a3.477 3.477 0 01-3.232 3.147c-1.738.124-3.481.22-5.227.29.083-2.382.143-4.793.18-7.196 2.848-.03 5.72-.08 8.566-.15-.071 1.305-.166 2.61-.287 3.91z" fill="#fff"/>
    <path d="M33.027 17.298c-1.056.006-1.413-.041-2.234-.484a.879.879 0 10-.834 1.548c.86.463 1.463.623 2.194.673v.352a.879.879 0 001.758 0v-.42c1.611-.33 2.593-1.527 2.758-2.708.15-1.072-.36-2.524-2.288-3.085-.955-.278-2.013-.615-2.617-1.005-.217-.14-.231-.362-.204-.523.05-.3.3-.67.855-.807 1.177-.292 1.982.17 2.131.265a.879.879 0 00.947-1.481 4.264 4.264 0 00-1.582-.58v-.298a.879.879 0 10-1.758 0v.35a5.318 5.318 0 00-.162.037c-1.137.283-1.987 1.156-2.165 2.225-.154.92.223 1.797.984 2.288.64.414 1.532.766 3.08 1.217.732.213 1.11.633 1.037 1.154-.086.617-.781 1.276-1.9 1.282z" fill="#F86A0C"/>
  </g>
  <defs>
    <clipPath id="edc_1__clip0">
      <path fill="#fff" d="M0 0h60v60H0z"/>
    </clipPath>
  </defs>
</svg>
