<svg width="60" height="60" fill="none" xmlns="http://www.w3.org/2000/svg">
  <path d="M41.097 58.239H7.75V14.794a.88.88 0 00-1.762 0v43.738c0 .81.659 1.468 1.468 1.468h33.641a.88.88 0 000-1.761zM53.765 7.963L46.279.267A.88.88 0 0045.648 0H7.456a1.47 1.47 0 00-1.468 1.468v6.869a.88.88 0 101.762 0V1.76h37.526l6.977 7.174v49.304h-4.991a.88.88 0 100 1.761h5.284a1.47 1.47 0 001.468-1.468V8.577a.88.88 0 00-.25-.614z" fill="#fff"/>
  <path d="M53.763 7.963L46.278.267a.88.88 0 00-1.512.614v7.696c0 .486.395.88.88.88h7.486a.88.88 0 00.631-1.494zm-7.236-.267V3.05l4.52 4.647h-4.52z" fill="#fff"/>
  <path d="M34.077 4.676H12.858a1.47 1.47 0 00-1.467 1.468v4.867c0 .81.658 1.468 1.467 1.468h21.22a1.47 1.47 0 001.467-1.468V6.143a1.47 1.47 0 00-1.468-1.467zm-.294 6.041H13.152v-4.28h20.631v4.28z" fill="#F86A0C"/>
  <path d="M20.184 17.087a.88.88 0 00-1.234.169l-3.891 5.12-1.169-1.023a.88.88 0 10-1.16 1.325l1.88 1.644a.881.881 0 001.28-.13l4.462-5.87a.88.88 0 00-.168-1.235zm26.506-.18H24.51a.88.88 0 100 1.762h22.18a.88.88 0 000-1.762zm-7.78 2.936h-14.4a.88.88 0 100 1.761h14.4a.88.88 0 000-1.761zm3.288 2.935H24.51a.88.88 0 100 1.762h17.688a.88.88 0 100-1.762zm-22.014 6.286a.88.88 0 00-1.234.169l-3.891 5.12-1.169-1.023a.88.88 0 10-1.16 1.325l1.88 1.644a.881.881 0 001.28-.13l4.462-5.87a.88.88 0 00-.168-1.235zm26.506-.179H24.51a.88.88 0 100 1.761h22.18a.88.88 0 100-1.761zm-7.78 2.935h-14.4a.88.88 0 100 1.761h14.4a.88.88 0 000-1.761zm3.288 2.935H24.51a.88.88 0 100 1.762h17.688a.88.88 0 000-1.762z" fill="#fff"/>
  <path d="M46.69 40.861H24.51a.88.88 0 100 1.762h22.18a.88.88 0 000-1.762zm-7.78 2.936h-14.4a.88.88 0 100 1.761h14.4a.88.88 0 000-1.761zm3.288 2.935H24.51a.88.88 0 100 1.762h17.688a.88.88 0 100-1.762zm-23.604-5.871h-4.697a1.47 1.47 0 00-1.467 1.468v4.697c0 .81.658 1.467 1.468 1.467h4.696a1.47 1.47 0 001.468-1.467v-4.697a1.47 1.47 0 00-1.468-1.468zm-.293 5.871h-4.11v-4.11h4.11v4.11z" fill="#F86A0C"/>
</svg>
