<?xml version="1.0" standalone="no"?>
<!DOCTYPE svg PUBLIC "-//W3C//DTD SVG 20010904//EN"
 "http://www.w3.org/TR/2001/REC-SVG-20010904/DTD/svg10.dtd">
<svg version="1.0" xmlns="http://www.w3.org/2000/svg"
 width="700.000000pt" height="700.000000pt" viewBox="0 0 700.000000 700.000000"
 preserveAspectRatio="xMidYMid meet">
<metadata>
Created by potrace 1.11, written by Peter Selinger 2001-2013
</metadata>
<g transform="translate(0.000000,700.000000) scale(0.100000,-0.100000)"
fill="#000000" stroke="none">
<path d="M2215 6982 c-61 -26 -93 -51 -124 -96 -100 -146 -51 -330 108 -409
l46 -22 1575 -1 c1202 -1 1589 -4 1635 -14 208 -42 387 -221 425 -425 8 -43
12 -669 13 -2185 l2 -2125 23 -44 c109 -204 393 -206 493 -4 l24 48 0 2175 c0
1779 -2 2185 -13 2230 -62 253 -159 429 -325 587 -135 128 -299 220 -484 271
l-98 27 -1630 2 c-1516 2 -1633 1 -1670 -15z"/>
<path d="M1667 5893 c-1 -1 -37 -3 -80 -4 -252 -7 -511 -118 -706 -303 -170
-162 -297 -418 -327 -661 -8 -70 -9 -3876 -1 -3951 48 -418 337 -777 736 -916
51 -17 94 -28 176 -46 54 -11 2812 -14 2915 -3 353 39 682 267 841 584 53 104
75 165 101 278 l21 94 2 1939 c0 1066 -2 1968 -6 2005 -29 269 -144 500 -337
682 -199 188 -441 291 -703 298 -99 3 -2630 7 -2632 4z m2688 -557 c159 -30
319 -153 386 -295 57 -121 53 33 55 -2071 3 -2081 5 -1986 -48 -2102 -53 -113
-158 -220 -264 -269 -117 -53 -58 -51 -1538 -51 -1253 0 -1377 1 -1435 17
-207 54 -367 222 -405 424 -10 51 -12 497 -11 1986 2 1806 3 1923 20 1975 33
106 85 185 169 262 36 33 149 99 180 104 6 1 37 9 69 16 47 11 304 13 1420 12
749 0 1380 -4 1402 -8z"/>
</g>
</svg>
