<svg width="24" height="25" fill="none" xmlns="http://www.w3.org/2000/svg">
  <g clip-path="url(#youtube_1__clip0)">
    <path d="M23.506 7.074a3.007 3.007 0 00-2.116-2.116C19.512 4.444 12 4.444 12 4.444s-7.512 0-9.39.495A3.068 3.068 0 00.493 7.074C0 8.952 0 12.846 0 12.846s0 3.915.494 5.773a3.007 3.007 0 002.116 2.115c1.897.514 9.39.514 9.39.514s7.512 0 9.39-.494a3.007 3.007 0 002.116-2.115C24 16.76 24 12.866 24 12.866s.02-3.914-.494-5.792z" fill="red"/>
    <path d="M9.605 16.445l6.247-3.598-6.247-3.598v7.196z" fill="#fff"/>
  </g>
  <defs>
    <clipPath id="youtube_1__clip0">
      <path fill="#fff" transform="translate(0 .835)" d="M0 0h24v24H0z"/>
    </clipPath>
  </defs>
</svg>
