<svg width="62" height="52" fill="none" xmlns="http://www.w3.org/2000/svg"><path d="M59.433 2.562C57.933.95 55.76.092 52.975.01c-7.86-.253-13.418 3.912-16.52 12.376-.163.444-.064.937.259 1.286.32.347.803.485 1.258.36a9.977 9.977 0 012.63-.367c1.146 0 2.67.21 3.43 1.208.582.767.66 1.917.235 3.418-.36 1.266-2.211 4.655-4.502 8.242-2.791 4.37-4.333 6.328-4.778 6.328-1.473 0-6.795-23.503-6.94-24.018-1.527-5.387-2.294-8.09-7.258-8.09-3.783 0-12.22 6.88-19.149 12.875-.426.368-.785.679-1.063.915-.67.57-.77 1.561-.23 2.255l1.292 1.657a1.65 1.65 0 002.259.332l.07-.05c2.242-1.59 4.36-3.09 5.958-3.171 1.737-.085 3.244 2.618 5.041 9.05C18.39 37.108 23.59 52 28.925 52c5.577 0 12.229-4.708 20.828-15.854 7.783-10.088 11.95-18.088 12.218-23.91.201-4.396-.653-7.65-2.538-9.674z" fill="#69B4E5" /></svg>
