<svg width="52" height="52" fill="none" xmlns="http://www.w3.org/2000/svg"><path d="M22.007 23.439a8.7 8.7 0 001.384-4.864c-.08-4.795-4.07-8.606-8.866-8.606H1.135C.509 9.969 0 10.477 0 11.105V40.55c0 .627.508 1.136 1.136 1.136h14.956c5.552 0 10.15-4.45 10.173-10.001a10.037 10.037 0 00-4.258-8.246zM5.874 15.843h8.765a2.882 2.882 0 012.88 2.88 2.882 2.882 0 01-2.88 2.878H5.874v-5.758zm10.349 19.968H5.874v-8.336h10.349a4.173 4.173 0 014.168 4.168 4.173 4.173 0 01-4.168 4.168zm35.776-6.214c0-6.857-5.404-12.434-12.046-12.434-6.643 0-12.047 5.578-12.047 12.434 0 6.856 5.404 12.434 12.047 12.434 4.03 0 7.775-2.066 10.018-5.527.28-.432.534-.882.759-1.347a.51.51 0 00-.46-.731l-5.921-.015a.5.5 0 00-.35.145c-1.118 1.087-2.489 1.6-4.046 1.6-2.943 0-5.41-2.2-6.024-5.134H50.82a1.18 1.18 0 001.179-1.18v-.245zm-12.046-6.56c2.155 0 4.055 1.18 5.159 2.965H34.793c1.105-1.784 3.004-2.965 5.16-2.965zm5.005-7.334H34.274a.903.903 0 01-.903-.903v-2.68c0-.499.404-.903.903-.903h10.684c.499 0 .903.404.903.903v2.68a.903.903 0 01-.903.903z" fill="#0067FF" /></svg>
