<svg width="58" height="40" fill="none" xmlns="http://www.w3.org/2000/svg"><path fill-rule="evenodd" clip-rule="evenodd" d="M21.1.002S14.416-.25 7.208 4.997C7.209 4.997 0 17.36 0 32.605c0 0 3.996 6.843 14.952 7.102 0 0 1.6-2.096 3.217-3.94-6.155-1.841-8.55-5.522-8.55-5.522s.535.26 1.338.786h.236c.114 0 .17.053.229.108l.01.01v.024c.063.063.118.118.24.118 13.085 5.31 24.021 6.536 36.5-1.322 0 0-2.399 3.682-8.81 5.522 1.322 1.833 3.178 3.933 3.178 3.933 8.981-.194 13.463-4.822 14.92-6.328.322-.332.497-.513.54-.46 0-15.22-7.252-27.608-7.252-27.608C44.267.289 38.211.077 37.066.073l-.731.72c8.278 2.36 12.285 6.044 12.285 6.044-20.109-9.897-36.944-1.652-39.48-.41a3.46 3.46 0 01-.323.15s4-3.94 12.82-6.044L21.1.002zm15.99.051l.13-.047h-.083l-.047.047zm.892 26.874c2.796 0 5.074-2.36 5.074-5.27 0-2.89-2.266-5.25-5.074-5.25v.012c-2.784 0-5.065 2.351-5.073 5.262 0 2.886 2.277 5.246 5.073 5.246zm-13.088-5.27c0 2.91-2.277 5.27-5.073 5.27-2.796 0-5.073-2.36-5.073-5.246 0-2.91 2.277-5.262 5.073-5.262l.016-.012c2.796 0 5.057 2.36 5.057 5.25z" fill="#5C6BC0" /></svg>
