<svg width="148" height="16" viewBox="0 0 195 22" fill="none" xmlns="http://www.w3.org/2000/svg">
  <path d="M6.536 13.118L4.3 15.588v6.118H0V.294h4.3V10l1.892-2.662L11.509.294h5.289L9.388 9.81l7.625 11.897h-5.117l-5.36-8.588z" fill="url(#paint0_linear)" />
  <path d="M35.316 11.485c0 2.108-.364 3.956-1.09 5.544-.726 1.589-1.767 2.814-3.124 3.677-1.348.863-2.895 1.294-4.644 1.294-1.73 0-3.273-.427-4.63-1.28-1.356-.852-2.407-2.068-3.153-3.646-.745-1.589-1.122-3.412-1.132-5.471v-1.059c0-2.108.368-3.96 1.104-5.559.745-1.608 1.791-2.838 3.139-3.69C23.142.43 24.69 0 26.429 0c1.74 0 3.283.431 4.63 1.294 1.357.853 2.403 2.083 3.139 3.691.745 1.598 1.117 3.446 1.117 5.544v.956zm-4.358-.97c0-2.245-.391-3.951-1.175-5.118-.783-1.167-1.901-1.75-3.354-1.75-1.442 0-2.556.578-3.34 1.735-.783 1.147-1.18 2.834-1.189 5.06v1.043c0 2.187.392 3.883 1.176 5.088.783 1.206 1.91 1.81 3.382 1.81 1.443 0 2.551-.58 3.325-1.736.774-1.167 1.166-2.863 1.175-5.088v-1.044z" fill="url(#paint1_linear)" />
  <path d="M55.41 21.706h-4.3L42.74 7.618v14.088h-4.3V.294h4.3l8.384 14.118V.294h4.286v21.412z" fill="url(#paint2_linear)" />
  <path d="M65.7 13.118l-2.235 2.47v6.118h-4.3V.294h4.3V10l1.892-2.662L70.674.294h5.289l-7.41 9.515 7.625 11.897H71.06l-5.36-8.588z" fill="url(#paint3_linear)" />
  <path d="M93.592.294v14.103c0 2.343-.717 4.196-2.15 5.559C90.018 21.319 88.069 22 85.594 22c-2.436 0-4.371-.662-5.804-1.985-1.434-1.324-2.165-3.143-2.193-5.456V.294h4.3v14.133c0 1.401.324 2.426.974 3.073.66.637 1.567.956 2.723.956 2.418 0 3.646-1.304 3.684-3.912V.294h4.314z" fill="url(#paint4_linear)" />
  <path d="M104.843 13.868h-3.425v7.838h-4.3V.294h7.754c2.465 0 4.366.564 5.704 1.691 1.338 1.128 2.007 2.72 2.007 4.78 0 1.46-.311 2.681-.932 3.662-.612.97-1.543 1.745-2.795 2.323l4.515 8.75v.206h-4.615l-3.913-7.838zm-3.425-3.574h3.468c1.08 0 1.916-.28 2.508-.838.593-.569.889-1.348.889-2.338 0-1.01-.282-1.804-.846-2.383-.554-.578-1.409-.867-2.565-.867h-3.454v6.426z" fill="url(#paint5_linear)" />
  <path d="M126.686 16.088c0-.833-.287-1.47-.86-1.912-.573-.45-1.605-.921-3.096-1.411-1.491-.5-2.671-.99-3.54-1.47-2.37-1.315-3.555-3.084-3.555-5.31 0-1.157.316-2.186.946-3.088.641-.912 1.553-1.622 2.738-2.132 1.194-.51 2.532-.765 4.013-.765 1.491 0 2.819.28 3.985.838 1.165.55 2.068 1.329 2.708 2.338.65 1.01.975 2.157.975 3.442h-4.3c0-.98-.301-1.74-.903-2.28-.602-.549-1.447-.823-2.537-.823-1.051 0-1.868.23-2.45.69-.583.452-.875 1.05-.875 1.795 0 .696.339 1.28 1.018 1.75.688.47 1.696.912 3.024 1.324 2.446.754 4.228 1.69 5.346 2.808C130.441 13 131 14.392 131 16.06c0 1.853-.683 3.309-2.05 4.367-1.366 1.05-3.205 1.574-5.518 1.574-1.605 0-3.067-.299-4.385-.897-1.319-.608-2.327-1.436-3.025-2.485-.688-1.05-1.032-2.265-1.032-3.647h4.315c0 2.362 1.376 3.544 4.127 3.544 1.023 0 1.821-.211 2.394-.633.573-.431.86-1.03.86-1.794z" fill="url(#paint6_linear)" />
  <path d="M139 21.706V.294h6.448c1.842 0 3.487.427 4.936 1.28 1.459.843 2.596 2.049 3.411 3.617.816 1.559 1.224 3.334 1.224 5.324v.985c0 1.99-.403 3.76-1.209 5.309-.797 1.549-1.924 2.75-3.383 3.603-1.458.853-3.104 1.284-4.936 1.294H139zm4.318-17.838v14.294h2.087c1.688 0 2.979-.564 3.871-1.691.892-1.128 1.348-2.74 1.367-4.839V10.5c0-2.176-.441-3.824-1.324-4.941-.883-1.128-2.173-1.691-3.871-1.691h-2.13zm32.065 7.617c0 2.108-.364 3.956-1.093 5.544-.73 1.589-1.775 2.814-3.138 3.677-1.353.863-2.907 1.294-4.663 1.294-1.737 0-3.286-.427-4.649-1.28-1.362-.852-2.417-2.068-3.166-3.646-.748-1.589-1.127-3.412-1.137-5.471v-1.059c0-2.108.37-3.96 1.108-5.559.749-1.608 1.799-2.838 3.152-3.69C163.16.43 164.714 0 166.46 0c1.747 0 3.296.431 4.649 1.294 1.362.853 2.413 2.083 3.152 3.691.748 1.598 1.122 3.446 1.122 5.544v.956zm-4.375-.97c0-2.245-.393-3.951-1.18-5.118-.787-1.167-1.909-1.75-3.368-1.75-1.449 0-2.566.578-3.353 1.735-.787 1.147-1.185 2.834-1.195 5.06v1.043c0 2.187.394 3.883 1.181 5.088.786 1.206 1.918 1.81 3.396 1.81 1.449 0 2.562-.58 3.339-1.736.777-1.167 1.171-2.863 1.18-5.088v-1.044zm23.963 4.058c-.163 2.305-.998 4.118-2.504 5.442-1.497 1.323-3.473 1.985-5.93 1.985-2.686 0-4.802-.922-6.347-2.765-1.535-1.853-2.302-4.392-2.302-7.617v-1.31c0-2.058.355-3.872 1.065-5.44.71-1.569 1.722-2.77 3.036-3.603C183.314.422 184.849 0 186.595 0c2.418 0 4.366.662 5.843 1.985C193.916 3.31 194.77 5.167 195 7.56h-4.318c-.105-1.383-.484-2.383-1.137-3-.642-.628-1.626-.941-2.95-.941-1.439 0-2.519.53-3.238 1.588-.71 1.049-1.075 2.681-1.094 4.897v1.618c0 2.313.341 4.005 1.022 5.073.691 1.069 1.775 1.603 3.252 1.603 1.334 0 2.327-.309 2.98-.926.662-.628 1.041-1.594 1.137-2.898h4.317z" fill="#fff" />
  <defs>
    <linearGradient id="paint0_linear" x1="0" y1="11" x2="131" y2="11" gradientUnits="userSpaceOnUse"><stop stop-color="#FF7A00" /><stop offset="1" stop-color="#DE3333" /></linearGradient>
    <linearGradient id="paint1_linear" x1="0" y1="11" x2="131" y2="11" gradientUnits="userSpaceOnUse"><stop stop-color="#FF7A00" /><stop offset="1" stop-color="#DE3333" /></linearGradient>
    <linearGradient id="paint2_linear" x1="0" y1="11" x2="131" y2="11" gradientUnits="userSpaceOnUse"><stop stop-color="#FF7A00" /><stop offset="1" stop-color="#DE3333" /></linearGradient>
    <linearGradient id="paint3_linear" x1="0" y1="11" x2="131" y2="11" gradientUnits="userSpaceOnUse"><stop stop-color="#FF7A00" /><stop offset="1" stop-color="#DE3333" /></linearGradient>
    <linearGradient id="paint4_linear" x1="0" y1="11" x2="131" y2="11" gradientUnits="userSpaceOnUse"><stop stop-color="#FF7A00" /><stop offset="1" stop-color="#DE3333" /></linearGradient>
    <linearGradient id="paint5_linear" x1="0" y1="11" x2="131" y2="11" gradientUnits="userSpaceOnUse"><stop stop-color="#FF7A00" /><stop offset="1" stop-color="#DE3333" /></linearGradient>
    <linearGradient id="paint6_linear" x1="0" y1="11" x2="131" y2="11" gradientUnits="userSpaceOnUse"><stop stop-color="#FF7A00" /><stop offset="1" stop-color="#DE3333" /></linearGradient>
  </defs>
</svg>
